<?xml version="1.0" encoding="utf-8"?>
<svg version="1.1" xmlns:xlink="http://www.w3.org/1999/xlink" width="12px" height="12px" viewBox="979 287.5  12 12" xmlns="http://www.w3.org/2000/svg">
  <path d="M 985 287.5  C 988.36 287.5  991 290.14  991 293.5  C 991 296.86  988.36 299.5  985 299.5  C 981.64 299.5  979 296.86  979 293.5  C 979 290.14  981.64 287.5  985 287.5  Z " fill-rule="nonzero" fill="#f0f0f0" stroke="none" />
  <path d="M 985 288  C 988.08 288  990.5 290.42  990.5 293.5  C 990.5 296.58  988.08 299  985 299  C 981.92 299  979.5 296.58  979.5 293.5  C 979.5 290.42  981.92 288  985 288  Z " stroke-width="1" stroke="#e82d8e" fill="none" />
  <path d="M 985 296.5  C 983.32 296.5  982 295.18  982 293.5  C 982 291.82  983.32 290.5  985 290.5  C 986.68 290.5  988 291.82  988 293.5  C 988 295.18  986.68 296.5  985 296.5  " fill-rule="nonzero" fill="#e82d8e" stroke="none" />
</svg>