<?xml version="1.0" encoding="utf-8"?>
<svg version="1.1" xmlns:xlink="http://www.w3.org/1999/xlink" width="12px" height="12px" viewBox="979 307.5  12 12" xmlns="http://www.w3.org/2000/svg">
  <path d="M 985 307.5  C 988.36 307.5  991 310.14  991 313.5  C 991 316.86  988.36 319.5  985 319.5  C 981.64 319.5  979 316.86  979 313.5  C 979 310.14  981.64 307.5  985 307.5  Z " fill-rule="nonzero" fill="#f0f0f0" stroke="none" />
  <path d="M 985 308  C 988.08 308  990.5 310.42  990.5 313.5  C 990.5 316.58  988.08 319  985 319  C 981.92 319  979.5 316.58  979.5 313.5  C 979.5 310.42  981.92 308  985 308  Z " stroke-width="1" stroke="#e82d8e" fill="none" />
  <path d="M 985 316.5  C 983.32 316.5  982 315.18  982 313.5  C 982 311.82  983.32 310.5  985 310.5  C 986.68 310.5  988 311.82  988 313.5  C 988 315.18  986.68 316.5  985 316.5  " fill-rule="nonzero" fill="#e82d8e" stroke="none" />
</svg>