<?xml version="1.0" encoding="utf-8"?>
<svg version="1.1" xmlns:xlink="http://www.w3.org/1999/xlink" width="12px" height="12px" viewBox="979 328.5  12 12" xmlns="http://www.w3.org/2000/svg">
  <path d="M 985 328.5  C 988.36 328.5  991 331.14  991 334.5  C 991 337.86  988.36 340.5  985 340.5  C 981.64 340.5  979 337.86  979 334.5  C 979 331.14  981.64 328.5  985 328.5  Z " fill-rule="nonzero" fill="#f0f0f0" stroke="none" />
  <path d="M 985 329  C 988.08 329  990.5 331.42  990.5 334.5  C 990.5 337.58  988.08 340  985 340  C 981.92 340  979.5 337.58  979.5 334.5  C 979.5 331.42  981.92 329  985 329  Z " stroke-width="1" stroke="#e82d8e" fill="none" />
  <path d="M 985 337.5  C 983.32 337.5  982 336.18  982 334.5  C 982 332.82  983.32 331.5  985 331.5  C 986.68 331.5  988 332.82  988 334.5  C 988 336.18  986.68 337.5  985 337.5  " fill-rule="nonzero" fill="#e82d8e" stroke="none" />
</svg>