<?xml version="1.0" encoding="utf-8"?>
<svg version="1.1" xmlns:xlink="http://www.w3.org/1999/xlink" width="12px" height="12px" viewBox="877 462.5  12 12" xmlns="http://www.w3.org/2000/svg">
  <path d="M 883 462.5  C 886.36 462.5  889 465.14  889 468.5  C 889 471.86  886.36 474.5  883 474.5  C 879.64 474.5  877 471.86  877 468.5  C 877 465.14  879.64 462.5  883 462.5  Z " fill-rule="nonzero" fill="#f0f0f0" stroke="none" />
  <path d="M 883 463  C 886.08 463  888.5 465.42  888.5 468.5  C 888.5 471.58  886.08 474  883 474  C 879.92 474  877.5 471.58  877.5 468.5  C 877.5 465.42  879.92 463  883 463  Z " stroke-width="1" stroke="#e82d8e" fill="none" />
  <path d="M 883 471.5  C 881.32 471.5  880 470.18  880 468.5  C 880 466.82  881.32 465.5  883 465.5  C 884.68 465.5  886 466.82  886 468.5  C 886 470.18  884.68 471.5  883 471.5  " fill-rule="nonzero" fill="#e82d8e" stroke="none" />
</svg>