<?xml version="1.0" encoding="utf-8"?>
<svg version="1.1" xmlns:xlink="http://www.w3.org/1999/xlink" width="12px" height="12px" viewBox="877 482.5  12 12" xmlns="http://www.w3.org/2000/svg">
  <path d="M 883 482.5  C 886.36 482.5  889 485.14  889 488.5  C 889 491.86  886.36 494.5  883 494.5  C 879.64 494.5  877 491.86  877 488.5  C 877 485.14  879.64 482.5  883 482.5  Z " fill-rule="nonzero" fill="#ffffff" stroke="none" />
  <path d="M 883 483  C 886.08 483  888.5 485.42  888.5 488.5  C 888.5 491.58  886.08 494  883 494  C 879.92 494  877.5 491.58  877.5 488.5  C 877.5 485.42  879.92 483  883 483  Z " stroke-width="1" stroke="#e82d8e" fill="none" />
  <path d="M 883 491.5  C 881.32 491.5  880 490.18  880 488.5  C 880 486.82  881.32 485.5  883 485.5  C 884.68 485.5  886 486.82  886 488.5  C 886 490.18  884.68 491.5  883 491.5  " fill-rule="nonzero" fill="#e82d8e" stroke="none" />
</svg>