<?xml version="1.0" encoding="utf-8"?>
<svg version="1.1" xmlns:xlink="http://www.w3.org/1999/xlink" width="12px" height="12px" viewBox="979 278.5  12 12" xmlns="http://www.w3.org/2000/svg">
  <path d="M 985 278.5  C 988.36 278.5  991 281.14  991 284.5  C 991 287.86  988.36 290.5  985 290.5  C 981.64 290.5  979 287.86  979 284.5  C 979 281.14  981.64 278.5  985 278.5  Z " fill-rule="nonzero" fill="#ffffff" stroke="none" />
  <path d="M 985 279  C 988.08 279  990.5 281.42  990.5 284.5  C 990.5 287.58  988.08 290  985 290  C 981.92 290  979.5 287.58  979.5 284.5  C 979.5 281.42  981.92 279  985 279  Z " stroke-width="1" stroke="#e82d8e" fill="none" />
  <path d="M 985 287.5  C 983.32 287.5  982 286.18  982 284.5  C 982 282.82  983.32 281.5  985 281.5  C 986.68 281.5  988 282.82  988 284.5  C 988 286.18  986.68 287.5  985 287.5  " fill-rule="nonzero" fill="#e82d8e" stroke="none" />
</svg>