<?xml version="1.0" encoding="utf-8"?>
<svg version="1.1" xmlns:xlink="http://www.w3.org/1999/xlink" width="12px" height="12px" viewBox="872 149.5  12 12" xmlns="http://www.w3.org/2000/svg">
  <path d="M 878 149.5  C 881.36 149.5  884 152.14  884 155.5  C 884 158.86  881.36 161.5  878 161.5  C 874.64 161.5  872 158.86  872 155.5  C 872 152.14  874.64 149.5  878 149.5  Z " fill-rule="nonzero" fill="#ffffff" stroke="none" />
  <path d="M 878 150  C 881.08 150  883.5 152.42  883.5 155.5  C 883.5 158.58  881.08 161  878 161  C 874.92 161  872.5 158.58  872.5 155.5  C 872.5 152.42  874.92 150  878 150  Z " stroke-width="1" stroke="#e82d8e" fill="none" />
  <path d="M 878 158.5  C 876.32 158.5  875 157.18  875 155.5  C 875 153.82  876.32 152.5  878 152.5  C 879.68 152.5  881 153.82  881 155.5  C 881 157.18  879.68 158.5  878 158.5  " fill-rule="nonzero" fill="#e82d8e" stroke="none" />
</svg>