<?xml version="1.0" encoding="utf-8"?>
<svg version="1.1" xmlns:xlink="http://www.w3.org/1999/xlink" width="12px" height="12px" viewBox="979 523.5  12 12" xmlns="http://www.w3.org/2000/svg">
  <path d="M 985 523.5  C 988.36 523.5  991 526.14  991 529.5  C 991 532.86  988.36 535.5  985 535.5  C 981.64 535.5  979 532.86  979 529.5  C 979 526.14  981.64 523.5  985 523.5  Z " fill-rule="nonzero" fill="#f0f0f0" stroke="none" />
  <path d="M 985 524  C 988.08 524  990.5 526.42  990.5 529.5  C 990.5 532.58  988.08 535  985 535  C 981.92 535  979.5 532.58  979.5 529.5  C 979.5 526.42  981.92 524  985 524  Z " stroke-width="1" stroke="#e82d8e" fill="none" />
  <path d="M 985 532.5  C 983.32 532.5  982 531.18  982 529.5  C 982 527.82  983.32 526.5  985 526.5  C 986.68 526.5  988 527.82  988 529.5  C 988 531.18  986.68 532.5  985 532.5  " fill-rule="nonzero" fill="#e82d8e" stroke="none" />
</svg>