<?xml version="1.0" encoding="utf-8"?>
<svg version="1.1" xmlns:xlink="http://www.w3.org/1999/xlink" width="12px" height="12px" viewBox="979 423.5  12 12" xmlns="http://www.w3.org/2000/svg">
  <path d="M 985 423.5  C 988.36 423.5  991 426.14  991 429.5  C 991 432.86  988.36 435.5  985 435.5  C 981.64 435.5  979 432.86  979 429.5  C 979 426.14  981.64 423.5  985 423.5  Z " fill-rule="nonzero" fill="#f0f0f0" stroke="none" />
  <path d="M 985 424  C 988.08 424  990.5 426.42  990.5 429.5  C 990.5 432.58  988.08 435  985 435  C 981.92 435  979.5 432.58  979.5 429.5  C 979.5 426.42  981.92 424  985 424  Z " stroke-width="1" stroke="#e82d8e" fill="none" />
  <path d="M 985 432.5  C 983.32 432.5  982 431.18  982 429.5  C 982 427.82  983.32 426.5  985 426.5  C 986.68 426.5  988 427.82  988 429.5  C 988 431.18  986.68 432.5  985 432.5  " fill-rule="nonzero" fill="#e82d8e" stroke="none" />
</svg>