<?xml version="1.0" encoding="utf-8"?>
<svg version="1.1" xmlns:xlink="http://www.w3.org/1999/xlink" width="12px" height="12px" viewBox="872 169.5  12 12" xmlns="http://www.w3.org/2000/svg">
  <path d="M 878 169.5  C 881.36 169.5  884 172.14  884 175.5  C 884 178.86  881.36 181.5  878 181.5  C 874.64 181.5  872 178.86  872 175.5  C 872 172.14  874.64 169.5  878 169.5  Z " fill-rule="nonzero" fill="#ffffff" stroke="none" />
  <path d="M 878 170  C 881.08 170  883.5 172.42  883.5 175.5  C 883.5 178.58  881.08 181  878 181  C 874.92 181  872.5 178.58  872.5 175.5  C 872.5 172.42  874.92 170  878 170  Z " stroke-width="1" stroke="#e82d8e" fill="none" />
  <path d="M 878 178.5  C 876.32 178.5  875 177.18  875 175.5  C 875 173.82  876.32 172.5  878 172.5  C 879.68 172.5  881 173.82  881 175.5  C 881 177.18  879.68 178.5  878 178.5  " fill-rule="nonzero" fill="#e82d8e" stroke="none" />
</svg>