<?xml version="1.0" encoding="utf-8"?>
<svg version="1.1" xmlns:xlink="http://www.w3.org/1999/xlink" width="12px" height="12px" viewBox="979 543.5  12 12" xmlns="http://www.w3.org/2000/svg">
  <path d="M 985 543.5  C 988.36 543.5  991 546.14  991 549.5  C 991 552.86  988.36 555.5  985 555.5  C 981.64 555.5  979 552.86  979 549.5  C 979 546.14  981.64 543.5  985 543.5  Z " fill-rule="nonzero" fill="#f0f0f0" stroke="none" />
  <path d="M 985 544  C 988.08 544  990.5 546.42  990.5 549.5  C 990.5 552.58  988.08 555  985 555  C 981.92 555  979.5 552.58  979.5 549.5  C 979.5 546.42  981.92 544  985 544  Z " stroke-width="1" stroke="#e82d8e" fill="none" />
  <path d="M 985 552.5  C 983.32 552.5  982 551.18  982 549.5  C 982 547.82  983.32 546.5  985 546.5  C 986.68 546.5  988 547.82  988 549.5  C 988 551.18  986.68 552.5  985 552.5  " fill-rule="nonzero" fill="#e82d8e" stroke="none" />
</svg>