<?xml version="1.0" encoding="utf-8"?>
<svg version="1.1" xmlns:xlink="http://www.w3.org/1999/xlink" width="12px" height="12px" viewBox="872 190.5  12 12" xmlns="http://www.w3.org/2000/svg">
  <path d="M 878 190.5  C 881.36 190.5  884 193.14  884 196.5  C 884 199.86  881.36 202.5  878 202.5  C 874.64 202.5  872 199.86  872 196.5  C 872 193.14  874.64 190.5  878 190.5  Z " fill-rule="nonzero" fill="#ffffff" stroke="none" />
  <path d="M 878 191  C 881.08 191  883.5 193.42  883.5 196.5  C 883.5 199.58  881.08 202  878 202  C 874.92 202  872.5 199.58  872.5 196.5  C 872.5 193.42  874.92 191  878 191  Z " stroke-width="1" stroke="#e82d8e" fill="none" />
  <path d="M 878 199.5  C 876.32 199.5  875 198.18  875 196.5  C 875 194.82  876.32 193.5  878 193.5  C 879.68 193.5  881 194.82  881 196.5  C 881 198.18  879.68 199.5  878 199.5  " fill-rule="nonzero" fill="#e82d8e" stroke="none" />
</svg>