<?xml version="1.0" encoding="utf-8"?>
<svg version="1.1" xmlns:xlink="http://www.w3.org/1999/xlink" width="12px" height="12px" viewBox="979 564.5  12 12" xmlns="http://www.w3.org/2000/svg">
  <path d="M 985 564.5  C 988.36 564.5  991 567.14  991 570.5  C 991 573.86  988.36 576.5  985 576.5  C 981.64 576.5  979 573.86  979 570.5  C 979 567.14  981.64 564.5  985 564.5  Z " fill-rule="nonzero" fill="#f0f0f0" stroke="none" />
  <path d="M 985 565  C 988.08 565  990.5 567.42  990.5 570.5  C 990.5 573.58  988.08 576  985 576  C 981.92 576  979.5 573.58  979.5 570.5  C 979.5 567.42  981.92 565  985 565  Z " stroke-width="1" stroke="#e82d8e" fill="none" />
  <path d="M 985 573.5  C 983.32 573.5  982 572.18  982 570.5  C 982 568.82  983.32 567.5  985 567.5  C 986.68 567.5  988 568.82  988 570.5  C 988 572.18  986.68 573.5  985 573.5  " fill-rule="nonzero" fill="#e82d8e" stroke="none" />
</svg>