<?xml version="1.0" encoding="utf-8"?>
<svg version="1.1" xmlns:xlink="http://www.w3.org/1999/xlink" width="12px" height="12px" viewBox="979 319.5  12 12" xmlns="http://www.w3.org/2000/svg">
  <path d="M 985 319.5  C 988.36 319.5  991 322.14  991 325.5  C 991 328.86  988.36 331.5  985 331.5  C 981.64 331.5  979 328.86  979 325.5  C 979 322.14  981.64 319.5  985 319.5  Z " fill-rule="nonzero" fill="#f0f0f0" stroke="none" />
  <path d="M 985 320  C 988.08 320  990.5 322.42  990.5 325.5  C 990.5 328.58  988.08 331  985 331  C 981.92 331  979.5 328.58  979.5 325.5  C 979.5 322.42  981.92 320  985 320  Z " stroke-width="1" stroke="#e82d8e" fill="none" />
  <path d="M 985 328.5  C 983.32 328.5  982 327.18  982 325.5  C 982 323.82  983.32 322.5  985 322.5  C 986.68 322.5  988 323.82  988 325.5  C 988 327.18  986.68 328.5  985 328.5  " fill-rule="nonzero" fill="#e82d8e" stroke="none" />
</svg>