<?xml version="1.0" encoding="utf-8"?>
<svg version="1.1" xmlns:xlink="http://www.w3.org/1999/xlink" width="12px" height="12px" viewBox="979 339.5  12 12" xmlns="http://www.w3.org/2000/svg">
  <path d="M 985 339.5  C 988.36 339.5  991 342.14  991 345.5  C 991 348.86  988.36 351.5  985 351.5  C 981.64 351.5  979 348.86  979 345.5  C 979 342.14  981.64 339.5  985 339.5  Z " fill-rule="nonzero" fill="#f0f0f0" stroke="none" />
  <path d="M 985 340  C 988.08 340  990.5 342.42  990.5 345.5  C 990.5 348.58  988.08 351  985 351  C 981.92 351  979.5 348.58  979.5 345.5  C 979.5 342.42  981.92 340  985 340  Z " stroke-width="1" stroke="#e82d8e" fill="none" />
  <path d="M 985 348.5  C 983.32 348.5  982 347.18  982 345.5  C 982 343.82  983.32 342.5  985 342.5  C 986.68 342.5  988 343.82  988 345.5  C 988 347.18  986.68 348.5  985 348.5  " fill-rule="nonzero" fill="#e82d8e" stroke="none" />
</svg>