<?xml version="1.0" encoding="utf-8"?>
<svg version="1.1" xmlns:xlink="http://www.w3.org/1999/xlink" width="12px" height="12px" viewBox="979 584.5  12 12" xmlns="http://www.w3.org/2000/svg">
  <path d="M 985 584.5  C 988.36 584.5  991 587.14  991 590.5  C 991 593.86  988.36 596.5  985 596.5  C 981.64 596.5  979 593.86  979 590.5  C 979 587.14  981.64 584.5  985 584.5  Z " fill-rule="nonzero" fill="#ffffff" stroke="none" />
  <path d="M 985 585  C 988.08 585  990.5 587.42  990.5 590.5  C 990.5 593.58  988.08 596  985 596  C 981.92 596  979.5 593.58  979.5 590.5  C 979.5 587.42  981.92 585  985 585  Z " stroke-width="1" stroke="#e82d8e" fill="none" />
  <path d="M 985 593.5  C 983.32 593.5  982 592.18  982 590.5  C 982 588.82  983.32 587.5  985 587.5  C 986.68 587.5  988 588.82  988 590.5  C 988 592.18  986.68 593.5  985 593.5  " fill-rule="nonzero" fill="#e82d8e" stroke="none" />
</svg>