<?xml version="1.0" encoding="utf-8"?>
<svg version="1.1" xmlns:xlink="http://www.w3.org/1999/xlink" width="12px" height="12px" viewBox="979 464.5  12 12" xmlns="http://www.w3.org/2000/svg">
  <path d="M 985 464.5  C 988.36 464.5  991 467.14  991 470.5  C 991 473.86  988.36 476.5  985 476.5  C 981.64 476.5  979 473.86  979 470.5  C 979 467.14  981.64 464.5  985 464.5  Z " fill-rule="nonzero" fill="#ffffff" stroke="none" />
  <path d="M 985 465  C 988.08 465  990.5 467.42  990.5 470.5  C 990.5 473.58  988.08 476  985 476  C 981.92 476  979.5 473.58  979.5 470.5  C 979.5 467.42  981.92 465  985 465  Z " stroke-width="1" stroke="#e82d8e" fill="none" />
  <path d="M 985 473.5  C 983.32 473.5  982 472.18  982 470.5  C 982 468.82  983.32 467.5  985 467.5  C 986.68 467.5  988 468.82  988 470.5  C 988 472.18  986.68 473.5  985 473.5  " fill-rule="nonzero" fill="#e82d8e" stroke="none" />
</svg>