<?xml version="1.0" encoding="utf-8"?>
<svg version="1.1" xmlns:xlink="http://www.w3.org/1999/xlink" width="12px" height="12px" viewBox="872 210.5  12 12" xmlns="http://www.w3.org/2000/svg">
  <path d="M 878 210.5  C 881.36 210.5  884 213.14  884 216.5  C 884 219.86  881.36 222.5  878 222.5  C 874.64 222.5  872 219.86  872 216.5  C 872 213.14  874.64 210.5  878 210.5  Z " fill-rule="nonzero" fill="#f0f0f0" stroke="none" />
  <path d="M 878 211  C 881.08 211  883.5 213.42  883.5 216.5  C 883.5 219.58  881.08 222  878 222  C 874.92 222  872.5 219.58  872.5 216.5  C 872.5 213.42  874.92 211  878 211  Z " stroke-width="1" stroke="#e82d8e" fill="none" />
  <path d="M 878 219.5  C 876.32 219.5  875 218.18  875 216.5  C 875 214.82  876.32 213.5  878 213.5  C 879.68 213.5  881 214.82  881 216.5  C 881 218.18  879.68 219.5  878 219.5  " fill-rule="nonzero" fill="#e82d8e" stroke="none" />
</svg>