<?xml version="1.0" encoding="utf-8"?>
<svg version="1.1" xmlns:xlink="http://www.w3.org/1999/xlink" width="12px" height="12px" viewBox="871 550.5  12 12" xmlns="http://www.w3.org/2000/svg">
  <path d="M 877 550.5  C 880.36 550.5  883 553.14  883 556.5  C 883 559.86  880.36 562.5  877 562.5  C 873.64 562.5  871 559.86  871 556.5  C 871 553.14  873.64 550.5  877 550.5  Z " fill-rule="nonzero" fill="#ffffff" stroke="none" />
  <path d="M 877 551  C 880.08 551  882.5 553.42  882.5 556.5  C 882.5 559.58  880.08 562  877 562  C 873.92 562  871.5 559.58  871.5 556.5  C 871.5 553.42  873.92 551  877 551  Z " stroke-width="1" stroke="#e82d8e" fill="none" />
  <path d="M 877 559.5  C 875.32 559.5  874 558.18  874 556.5  C 874 554.82  875.32 553.5  877 553.5  C 878.68 553.5  880 554.82  880 556.5  C 880 558.18  878.68 559.5  877 559.5  " fill-rule="nonzero" fill="#e82d8e" stroke="none" />
</svg>