<?xml version="1.0" encoding="utf-8"?>
<svg version="1.1" xmlns:xlink="http://www.w3.org/1999/xlink" width="12px" height="12px" viewBox="979 421.5  12 12" xmlns="http://www.w3.org/2000/svg">
  <path d="M 985 421.5  C 988.36 421.5  991 424.14  991 427.5  C 991 430.86  988.36 433.5  985 433.5  C 981.64 433.5  979 430.86  979 427.5  C 979 424.14  981.64 421.5  985 421.5  Z " fill-rule="nonzero" fill="#ffffff" stroke="none" />
  <path d="M 985 422  C 988.08 422  990.5 424.42  990.5 427.5  C 990.5 430.58  988.08 433  985 433  C 981.92 433  979.5 430.58  979.5 427.5  C 979.5 424.42  981.92 422  985 422  Z " stroke-width="1" stroke="#e82d8e" fill="none" />
  <path d="M 985 430.5  C 983.32 430.5  982 429.18  982 427.5  C 982 425.82  983.32 424.5  985 424.5  C 986.68 424.5  988 425.82  988 427.5  C 988 429.18  986.68 430.5  985 430.5  " fill-rule="nonzero" fill="#e82d8e" stroke="none" />
</svg>