<?xml version="1.0" encoding="utf-8"?>
<svg version="1.1" xmlns:xlink="http://www.w3.org/1999/xlink" width="12px" height="12px" viewBox="979 441.5  12 12" xmlns="http://www.w3.org/2000/svg">
  <path d="M 985 441.5  C 988.36 441.5  991 444.14  991 447.5  C 991 450.86  988.36 453.5  985 453.5  C 981.64 453.5  979 450.86  979 447.5  C 979 444.14  981.64 441.5  985 441.5  Z " fill-rule="nonzero" fill="#f0f0f0" stroke="none" />
  <path d="M 985 442  C 988.08 442  990.5 444.42  990.5 447.5  C 990.5 450.58  988.08 453  985 453  C 981.92 453  979.5 450.58  979.5 447.5  C 979.5 444.42  981.92 442  985 442  Z " stroke-width="1" stroke="#e82d8e" fill="none" />
  <path d="M 985 450.5  C 983.32 450.5  982 449.18  982 447.5  C 982 445.82  983.32 444.5  985 444.5  C 986.68 444.5  988 445.82  988 447.5  C 988 449.18  986.68 450.5  985 450.5  " fill-rule="nonzero" fill="#e82d8e" stroke="none" />
</svg>