<?xml version="1.0" encoding="utf-8"?>
<svg version="1.1" xmlns:xlink="http://www.w3.org/1999/xlink" width="12px" height="12px" viewBox="871 570.5  12 12" xmlns="http://www.w3.org/2000/svg">
  <path d="M 877 570.5  C 880.36 570.5  883 573.14  883 576.5  C 883 579.86  880.36 582.5  877 582.5  C 873.64 582.5  871 579.86  871 576.5  C 871 573.14  873.64 570.5  877 570.5  Z " fill-rule="nonzero" fill="#ffffff" stroke="none" />
  <path d="M 877 571  C 880.08 571  882.5 573.42  882.5 576.5  C 882.5 579.58  880.08 582  877 582  C 873.92 582  871.5 579.58  871.5 576.5  C 871.5 573.42  873.92 571  877 571  Z " stroke-width="1" stroke="#e82d8e" fill="none" />
  <path d="M 877 579.5  C 875.32 579.5  874 578.18  874 576.5  C 874 574.82  875.32 573.5  877 573.5  C 878.68 573.5  880 574.82  880 576.5  C 880 578.18  878.68 579.5  877 579.5  " fill-rule="nonzero" fill="#e82d8e" stroke="none" />
</svg>