<?xml version="1.0" encoding="utf-8"?>
<svg version="1.1" xmlns:xlink="http://www.w3.org/1999/xlink" width="12px" height="12px" viewBox="871 305.5  12 12" xmlns="http://www.w3.org/2000/svg">
  <path d="M 877 305.5  C 880.36 305.5  883 308.14  883 311.5  C 883 314.86  880.36 317.5  877 317.5  C 873.64 317.5  871 314.86  871 311.5  C 871 308.14  873.64 305.5  877 305.5  Z " fill-rule="nonzero" fill="#ffffff" stroke="none" />
  <path d="M 877 306  C 880.08 306  882.5 308.42  882.5 311.5  C 882.5 314.58  880.08 317  877 317  C 873.92 317  871.5 314.58  871.5 311.5  C 871.5 308.42  873.92 306  877 306  Z " stroke-width="1" stroke="#e82d8e" fill="none" />
  <path d="M 877 314.5  C 875.32 314.5  874 313.18  874 311.5  C 874 309.82  875.32 308.5  877 308.5  C 878.68 308.5  880 309.82  880 311.5  C 880 313.18  878.68 314.5  877 314.5  " fill-rule="nonzero" fill="#e82d8e" stroke="none" />
</svg>