<?xml version="1.0" encoding="utf-8"?>
<svg version="1.1" xmlns:xlink="http://www.w3.org/1999/xlink" width="12px" height="12px" viewBox="979 462.5  12 12" xmlns="http://www.w3.org/2000/svg">
  <path d="M 985 462.5  C 988.36 462.5  991 465.14  991 468.5  C 991 471.86  988.36 474.5  985 474.5  C 981.64 474.5  979 471.86  979 468.5  C 979 465.14  981.64 462.5  985 462.5  Z " fill-rule="nonzero" fill="#ffffff" stroke="none" />
  <path d="M 985 463  C 988.08 463  990.5 465.42  990.5 468.5  C 990.5 471.58  988.08 474  985 474  C 981.92 474  979.5 471.58  979.5 468.5  C 979.5 465.42  981.92 463  985 463  Z " stroke-width="1" stroke="#e82d8e" fill="none" />
  <path d="M 985 471.5  C 983.32 471.5  982 470.18  982 468.5  C 982 466.82  983.32 465.5  985 465.5  C 986.68 465.5  988 466.82  988 468.5  C 988 470.18  986.68 471.5  985 471.5  " fill-rule="nonzero" fill="#e82d8e" stroke="none" />
</svg>