<?xml version="1.0" encoding="utf-8"?>
<svg version="1.1" xmlns:xlink="http://www.w3.org/1999/xlink" width="12px" height="12px" viewBox="871 591.5  12 12" xmlns="http://www.w3.org/2000/svg">
  <path d="M 877 591.5  C 880.36 591.5  883 594.14  883 597.5  C 883 600.86  880.36 603.5  877 603.5  C 873.64 603.5  871 600.86  871 597.5  C 871 594.14  873.64 591.5  877 591.5  Z " fill-rule="nonzero" fill="#f0f0f0" stroke="none" />
  <path d="M 877 592  C 880.08 592  882.5 594.42  882.5 597.5  C 882.5 600.58  880.08 603  877 603  C 873.92 603  871.5 600.58  871.5 597.5  C 871.5 594.42  873.92 592  877 592  Z " stroke-width="1" stroke="#e82d8e" fill="none" />
  <path d="M 877 600.5  C 875.32 600.5  874 599.18  874 597.5  C 874 595.82  875.32 594.5  877 594.5  C 878.68 594.5  880 595.82  880 597.5  C 880 599.18  878.68 600.5  877 600.5  " fill-rule="nonzero" fill="#e82d8e" stroke="none" />
</svg>