<?xml version="1.0" encoding="utf-8"?>
<svg version="1.1" xmlns:xlink="http://www.w3.org/1999/xlink" width="12px" height="12px" viewBox="871 326.5  12 12" xmlns="http://www.w3.org/2000/svg">
  <path d="M 877 326.5  C 880.36 326.5  883 329.14  883 332.5  C 883 335.86  880.36 338.5  877 338.5  C 873.64 338.5  871 335.86  871 332.5  C 871 329.14  873.64 326.5  877 326.5  Z " fill-rule="nonzero" fill="#f0f0f0" stroke="none" />
  <path d="M 877 327  C 880.08 327  882.5 329.42  882.5 332.5  C 882.5 335.58  880.08 338  877 338  C 873.92 338  871.5 335.58  871.5 332.5  C 871.5 329.42  873.92 327  877 327  Z " stroke-width="1" stroke="#e82d8e" fill="none" />
  <path d="M 877 335.5  C 875.32 335.5  874 334.18  874 332.5  C 874 330.82  875.32 329.5  877 329.5  C 878.68 329.5  880 330.82  880 332.5  C 880 334.18  878.68 335.5  877 335.5  " fill-rule="nonzero" fill="#e82d8e" stroke="none" />
</svg>