<?xml version="1.0" encoding="utf-8"?>
<svg version="1.1" xmlns:xlink="http://www.w3.org/1999/xlink" width="12px" height="12px" viewBox="871 611.5  12 12" xmlns="http://www.w3.org/2000/svg">
  <path d="M 877 611.5  C 880.36 611.5  883 614.14  883 617.5  C 883 620.86  880.36 623.5  877 623.5  C 873.64 623.5  871 620.86  871 617.5  C 871 614.14  873.64 611.5  877 611.5  Z " fill-rule="nonzero" fill="#ffffff" stroke="none" />
  <path d="M 877 612  C 880.08 612  882.5 614.42  882.5 617.5  C 882.5 620.58  880.08 623  877 623  C 873.92 623  871.5 620.58  871.5 617.5  C 871.5 614.42  873.92 612  877 612  Z " stroke-width="1" stroke="#e82d8e" fill="none" />
  <path d="M 877 620.5  C 875.32 620.5  874 619.18  874 617.5  C 874 615.82  875.32 614.5  877 614.5  C 878.68 614.5  880 615.82  880 617.5  C 880 619.18  878.68 620.5  877 620.5  " fill-rule="nonzero" fill="#e82d8e" stroke="none" />
</svg>