<?xml version="1.0" encoding="utf-8"?>
<svg version="1.1" xmlns:xlink="http://www.w3.org/1999/xlink" width="12px" height="12px" viewBox="979 482.5  12 12" xmlns="http://www.w3.org/2000/svg">
  <path d="M 985 482.5  C 988.36 482.5  991 485.14  991 488.5  C 991 491.86  988.36 494.5  985 494.5  C 981.64 494.5  979 491.86  979 488.5  C 979 485.14  981.64 482.5  985 482.5  Z " fill-rule="nonzero" fill="#ffffff" stroke="none" />
  <path d="M 985 483  C 988.08 483  990.5 485.42  990.5 488.5  C 990.5 491.58  988.08 494  985 494  C 981.92 494  979.5 491.58  979.5 488.5  C 979.5 485.42  981.92 483  985 483  Z " stroke-width="1" stroke="#e82d8e" fill="none" />
  <path d="M 985 491.5  C 983.32 491.5  982 490.18  982 488.5  C 982 486.82  983.32 485.5  985 485.5  C 986.68 485.5  988 486.82  988 488.5  C 988 490.18  986.68 491.5  985 491.5  " fill-rule="nonzero" fill="#e82d8e" stroke="none" />
</svg>