<?xml version="1.0" encoding="utf-8"?>
<svg version="1.1" xmlns:xlink="http://www.w3.org/1999/xlink" width="12px" height="12px" viewBox="875 127.5  12 12" xmlns="http://www.w3.org/2000/svg">
  <path d="M 881 127.5  C 884.36 127.5  887 130.14  887 133.5  C 887 136.86  884.36 139.5  881 139.5  C 877.64 139.5  875 136.86  875 133.5  C 875 130.14  877.64 127.5  881 127.5  Z " fill-rule="nonzero" fill="#ffffff" stroke="none" />
  <path d="M 881 128  C 884.08 128  886.5 130.42  886.5 133.5  C 886.5 136.58  884.08 139  881 139  C 877.92 139  875.5 136.58  875.5 133.5  C 875.5 130.42  877.92 128  881 128  Z " stroke-width="1" stroke="#e82d8e" fill="none" />
  <path d="M 881 136.5  C 879.32 136.5  878 135.18  878 133.5  C 878 131.82  879.32 130.5  881 130.5  C 882.68 130.5  884 131.82  884 133.5  C 884 135.18  882.68 136.5  881 136.5  " fill-rule="nonzero" fill="#e82d8e" stroke="none" />
</svg>