<?xml version="1.0" encoding="utf-8"?>
<svg version="1.1" xmlns:xlink="http://www.w3.org/1999/xlink" width="12px" height="12px" viewBox="875 282.5  12 12" xmlns="http://www.w3.org/2000/svg">
  <path d="M 881 282.5  C 884.36 282.5  887 285.14  887 288.5  C 887 291.86  884.36 294.5  881 294.5  C 877.64 294.5  875 291.86  875 288.5  C 875 285.14  877.64 282.5  881 282.5  Z " fill-rule="nonzero" fill="#f0f0f0" stroke="none" />
  <path d="M 881 283  C 884.08 283  886.5 285.42  886.5 288.5  C 886.5 291.58  884.08 294  881 294  C 877.92 294  875.5 291.58  875.5 288.5  C 875.5 285.42  877.92 283  881 283  Z " stroke-width="1" stroke="#e82d8e" fill="none" />
  <path d="M 881 291.5  C 879.32 291.5  878 290.18  878 288.5  C 878 286.82  879.32 285.5  881 285.5  C 882.68 285.5  884 286.82  884 288.5  C 884 290.18  882.68 291.5  881 291.5  " fill-rule="nonzero" fill="#e82d8e" stroke="none" />
</svg>