<?xml version="1.0" encoding="utf-8"?>
<svg version="1.1" xmlns:xlink="http://www.w3.org/1999/xlink" width="12px" height="12px" viewBox="875 418.5  12 12" xmlns="http://www.w3.org/2000/svg">
  <path d="M 881 418.5  C 884.36 418.5  887 421.14  887 424.5  C 887 427.86  884.36 430.5  881 430.5  C 877.64 430.5  875 427.86  875 424.5  C 875 421.14  877.64 418.5  881 418.5  Z " fill-rule="nonzero" fill="#f0f0f0" stroke="none" />
  <path d="M 881 419  C 884.08 419  886.5 421.42  886.5 424.5  C 886.5 427.58  884.08 430  881 430  C 877.92 430  875.5 427.58  875.5 424.5  C 875.5 421.42  877.92 419  881 419  Z " stroke-width="1" stroke="#e82d8e" fill="none" />
  <path d="M 881 427.5  C 879.32 427.5  878 426.18  878 424.5  C 878 422.82  879.32 421.5  881 421.5  C 882.68 421.5  884 422.82  884 424.5  C 884 426.18  882.68 427.5  881 427.5  " fill-rule="nonzero" fill="#e82d8e" stroke="none" />
</svg>