<?xml version="1.0" encoding="utf-8"?>
<svg version="1.1" xmlns:xlink="http://www.w3.org/1999/xlink" width="12px" height="12px" viewBox="875 439.5  12 12" xmlns="http://www.w3.org/2000/svg">
  <path d="M 881 439.5  C 884.36 439.5  887 442.14  887 445.5  C 887 448.86  884.36 451.5  881 451.5  C 877.64 451.5  875 448.86  875 445.5  C 875 442.14  877.64 439.5  881 439.5  Z " fill-rule="nonzero" fill="#ffffff" stroke="none" />
  <path d="M 881 440  C 884.08 440  886.5 442.42  886.5 445.5  C 886.5 448.58  884.08 451  881 451  C 877.92 451  875.5 448.58  875.5 445.5  C 875.5 442.42  877.92 440  881 440  Z " stroke-width="1" stroke="#e82d8e" fill="none" />
  <path d="M 881 448.5  C 879.32 448.5  878 447.18  878 445.5  C 878 443.82  879.32 442.5  881 442.5  C 882.68 442.5  884 443.82  884 445.5  C 884 447.18  882.68 448.5  881 448.5  " fill-rule="nonzero" fill="#e82d8e" stroke="none" />
</svg>