<?xml version="1.0" encoding="utf-8"?>
<svg version="1.1" xmlns:xlink="http://www.w3.org/1999/xlink" width="12px" height="12px" viewBox="875 168.5  12 12" xmlns="http://www.w3.org/2000/svg">
  <path d="M 881 168.5  C 884.36 168.5  887 171.14  887 174.5  C 887 177.86  884.36 180.5  881 180.5  C 877.64 180.5  875 177.86  875 174.5  C 875 171.14  877.64 168.5  881 168.5  Z " fill-rule="nonzero" fill="#f0f0f0" stroke="none" />
  <path d="M 881 169  C 884.08 169  886.5 171.42  886.5 174.5  C 886.5 177.58  884.08 180  881 180  C 877.92 180  875.5 177.58  875.5 174.5  C 875.5 171.42  877.92 169  881 169  Z " stroke-width="1" stroke="#e82d8e" fill="none" />
  <path d="M 881 177.5  C 879.32 177.5  878 176.18  878 174.5  C 878 172.82  879.32 171.5  881 171.5  C 882.68 171.5  884 172.82  884 174.5  C 884 176.18  882.68 177.5  881 177.5  " fill-rule="nonzero" fill="#e82d8e" stroke="none" />
</svg>