<?xml version="1.0" encoding="utf-8"?>
<svg version="1.1" xmlns:xlink="http://www.w3.org/1999/xlink" width="12px" height="12px" viewBox="875 303.5  12 12" xmlns="http://www.w3.org/2000/svg">
  <path d="M 881 303.5  C 884.36 303.5  887 306.14  887 309.5  C 887 312.86  884.36 315.5  881 315.5  C 877.64 315.5  875 312.86  875 309.5  C 875 306.14  877.64 303.5  881 303.5  Z " fill-rule="nonzero" fill="#f0f0f0" stroke="none" />
  <path d="M 881 304  C 884.08 304  886.5 306.42  886.5 309.5  C 886.5 312.58  884.08 315  881 315  C 877.92 315  875.5 312.58  875.5 309.5  C 875.5 306.42  877.92 304  881 304  Z " stroke-width="1" stroke="#e82d8e" fill="none" />
  <path d="M 881 312.5  C 879.32 312.5  878 311.18  878 309.5  C 878 307.82  879.32 306.5  881 306.5  C 882.68 306.5  884 307.82  884 309.5  C 884 311.18  882.68 312.5  881 312.5  " fill-rule="nonzero" fill="#e82d8e" stroke="none" />
</svg>