<?xml version="1.0" encoding="utf-8"?>
<svg version="1.1" xmlns:xlink="http://www.w3.org/1999/xlink" width="12px" height="12px" viewBox="875 188.5  12 12" xmlns="http://www.w3.org/2000/svg">
  <path d="M 881 188.5  C 884.36 188.5  887 191.14  887 194.5  C 887 197.86  884.36 200.5  881 200.5  C 877.64 200.5  875 197.86  875 194.5  C 875 191.14  877.64 188.5  881 188.5  Z " fill-rule="nonzero" fill="#f0f0f0" stroke="none" />
  <path d="M 881 189  C 884.08 189  886.5 191.42  886.5 194.5  C 886.5 197.58  884.08 200  881 200  C 877.92 200  875.5 197.58  875.5 194.5  C 875.5 191.42  877.92 189  881 189  Z " stroke-width="1" stroke="#e82d8e" fill="none" />
  <path d="M 881 197.5  C 879.32 197.5  878 196.18  878 194.5  C 878 192.82  879.32 191.5  881 191.5  C 882.68 191.5  884 192.82  884 194.5  C 884 196.18  882.68 197.5  881 197.5  " fill-rule="nonzero" fill="#e82d8e" stroke="none" />
</svg>