<?xml version="1.0" encoding="utf-8"?>
<svg version="1.1" xmlns:xlink="http://www.w3.org/1999/xlink" width="12px" height="12px" viewBox="875 323.5  12 12" xmlns="http://www.w3.org/2000/svg">
  <path d="M 881 323.5  C 884.36 323.5  887 326.14  887 329.5  C 887 332.86  884.36 335.5  881 335.5  C 877.64 335.5  875 332.86  875 329.5  C 875 326.14  877.64 323.5  881 323.5  Z " fill-rule="nonzero" fill="#f0f0f0" stroke="none" />
  <path d="M 881 324  C 884.08 324  886.5 326.42  886.5 329.5  C 886.5 332.58  884.08 335  881 335  C 877.92 335  875.5 332.58  875.5 329.5  C 875.5 326.42  877.92 324  881 324  Z " stroke-width="1" stroke="#e82d8e" fill="none" />
  <path d="M 881 332.5  C 879.32 332.5  878 331.18  878 329.5  C 878 327.82  879.32 326.5  881 326.5  C 882.68 326.5  884 327.82  884 329.5  C 884 331.18  882.68 332.5  881 332.5  " fill-rule="nonzero" fill="#e82d8e" stroke="none" />
</svg>