<?xml version="1.0" encoding="utf-8"?>
<svg version="1.1" xmlns:xlink="http://www.w3.org/1999/xlink" width="12px" height="12px" viewBox="1071 499.5  12 12" xmlns="http://www.w3.org/2000/svg">
  <path d="M 1077 499.5  C 1080.36 499.5  1083 502.14  1083 505.5  C 1083 508.86  1080.36 511.5  1077 511.5  C 1073.64 511.5  1071 508.86  1071 505.5  C 1071 502.14  1073.64 499.5  1077 499.5  Z " fill-rule="nonzero" fill="#f0f0f0" stroke="none" />
  <path d="M 1077 500  C 1080.08 500  1082.5 502.42  1082.5 505.5  C 1082.5 508.58  1080.08 511  1077 511  C 1073.92 511  1071.5 508.58  1071.5 505.5  C 1071.5 502.42  1073.92 500  1077 500  Z " stroke-width="1" stroke="#e82d8e" fill="none" />
  <path d="M 1077 508.5  C 1075.32 508.5  1074 507.18  1074 505.5  C 1074 503.82  1075.32 502.5  1077 502.5  C 1078.68 502.5  1080 503.82  1080 505.5  C 1080 507.18  1078.68 508.5  1077 508.5  " fill-rule="nonzero" fill="#e82d8e" stroke="none" />
</svg>