<?xml version="1.0" encoding="utf-8"?>
<svg version="1.1" xmlns:xlink="http://www.w3.org/1999/xlink" width="12px" height="12px" viewBox="979 257.5  12 12" xmlns="http://www.w3.org/2000/svg">
  <path d="M 985 257.5  C 988.36 257.5  991 260.14  991 263.5  C 991 266.86  988.36 269.5  985 269.5  C 981.64 269.5  979 266.86  979 263.5  C 979 260.14  981.64 257.5  985 257.5  Z " fill-rule="nonzero" fill="#f0f0f0" stroke="none" />
  <path d="M 985 258  C 988.08 258  990.5 260.42  990.5 263.5  C 990.5 266.58  988.08 269  985 269  C 981.92 269  979.5 266.58  979.5 263.5  C 979.5 260.42  981.92 258  985 258  Z " stroke-width="1" stroke="#e82d8e" fill="none" />
  <path d="M 985 266.5  C 983.32 266.5  982 265.18  982 263.5  C 982 261.82  983.32 260.5  985 260.5  C 986.68 260.5  988 261.82  988 263.5  C 988 265.18  986.68 266.5  985 266.5  " fill-rule="nonzero" fill="#e82d8e" stroke="none" />
</svg>