<?xml version="1.0" encoding="utf-8"?>
<svg version="1.1" xmlns:xlink="http://www.w3.org/1999/xlink" width="12px" height="12px" viewBox="979 277.5  12 12" xmlns="http://www.w3.org/2000/svg">
  <path d="M 985 277.5  C 988.36 277.5  991 280.14  991 283.5  C 991 286.86  988.36 289.5  985 289.5  C 981.64 289.5  979 286.86  979 283.5  C 979 280.14  981.64 277.5  985 277.5  Z " fill-rule="nonzero" fill="#f0f0f0" stroke="none" />
  <path d="M 985 278  C 988.08 278  990.5 280.42  990.5 283.5  C 990.5 286.58  988.08 289  985 289  C 981.92 289  979.5 286.58  979.5 283.5  C 979.5 280.42  981.92 278  985 278  Z " stroke-width="1" stroke="#e82d8e" fill="none" />
  <path d="M 985 286.5  C 983.32 286.5  982 285.18  982 283.5  C 982 281.82  983.32 280.5  985 280.5  C 986.68 280.5  988 281.82  988 283.5  C 988 285.18  986.68 286.5  985 286.5  " fill-rule="nonzero" fill="#e82d8e" stroke="none" />
</svg>