<?xml version="1.0" encoding="utf-8"?>
<svg version="1.1" xmlns:xlink="http://www.w3.org/1999/xlink" width="12px" height="12px" viewBox="1071 519.5  12 12" xmlns="http://www.w3.org/2000/svg">
  <path d="M 1077 519.5  C 1080.36 519.5  1083 522.14  1083 525.5  C 1083 528.86  1080.36 531.5  1077 531.5  C 1073.64 531.5  1071 528.86  1071 525.5  C 1071 522.14  1073.64 519.5  1077 519.5  Z " fill-rule="nonzero" fill="#f0f0f0" stroke="none" />
  <path d="M 1077 520  C 1080.08 520  1082.5 522.42  1082.5 525.5  C 1082.5 528.58  1080.08 531  1077 531  C 1073.92 531  1071.5 528.58  1071.5 525.5  C 1071.5 522.42  1073.92 520  1077 520  Z " stroke-width="1" stroke="#e82d8e" fill="none" />
  <path d="M 1077 528.5  C 1075.32 528.5  1074 527.18  1074 525.5  C 1074 523.82  1075.32 522.5  1077 522.5  C 1078.68 522.5  1080 523.82  1080 525.5  C 1080 527.18  1078.68 528.5  1077 528.5  " fill-rule="nonzero" fill="#e82d8e" stroke="none" />
</svg>