<?xml version="1.0" encoding="utf-8"?>
<svg version="1.1" xmlns:xlink="http://www.w3.org/1999/xlink" width="12px" height="12px" viewBox="979 395.5  12 12" xmlns="http://www.w3.org/2000/svg">
  <path d="M 985 395.5  C 988.36 395.5  991 398.14  991 401.5  C 991 404.86  988.36 407.5  985 407.5  C 981.64 407.5  979 404.86  979 401.5  C 979 398.14  981.64 395.5  985 395.5  Z " fill-rule="nonzero" fill="#f0f0f0" stroke="none" />
  <path d="M 985 396  C 988.08 396  990.5 398.42  990.5 401.5  C 990.5 404.58  988.08 407  985 407  C 981.92 407  979.5 404.58  979.5 401.5  C 979.5 398.42  981.92 396  985 396  Z " stroke-width="1" stroke="#e82d8e" fill="none" />
  <path d="M 985 404.5  C 983.32 404.5  982 403.18  982 401.5  C 982 399.82  983.32 398.5  985 398.5  C 986.68 398.5  988 399.82  988 401.5  C 988 403.18  986.68 404.5  985 404.5  " fill-rule="nonzero" fill="#e82d8e" stroke="none" />
</svg>