<?xml version="1.0" encoding="utf-8"?>
<svg version="1.1" xmlns:xlink="http://www.w3.org/1999/xlink" width="12px" height="12px" viewBox="979 177.5  12 12" xmlns="http://www.w3.org/2000/svg">
  <path d="M 985 177.5  C 988.36 177.5  991 180.14  991 183.5  C 991 186.86  988.36 189.5  985 189.5  C 981.64 189.5  979 186.86  979 183.5  C 979 180.14  981.64 177.5  985 177.5  Z " fill-rule="nonzero" fill="#f0f0f0" stroke="none" />
  <path d="M 985 178  C 988.08 178  990.5 180.42  990.5 183.5  C 990.5 186.58  988.08 189  985 189  C 981.92 189  979.5 186.58  979.5 183.5  C 979.5 180.42  981.92 178  985 178  Z " stroke-width="1" stroke="#e82d8e" fill="none" />
  <path d="M 985 186.5  C 983.32 186.5  982 185.18  982 183.5  C 982 181.82  983.32 180.5  985 180.5  C 986.68 180.5  988 181.82  988 183.5  C 988 185.18  986.68 186.5  985 186.5  " fill-rule="nonzero" fill="#e82d8e" stroke="none" />
</svg>