<?xml version="1.0" encoding="utf-8"?>
<svg version="1.1" xmlns:xlink="http://www.w3.org/1999/xlink" width="12px" height="12px" viewBox="979 416.5  12 12" xmlns="http://www.w3.org/2000/svg">
  <path d="M 985 416.5  C 988.36 416.5  991 419.14  991 422.5  C 991 425.86  988.36 428.5  985 428.5  C 981.64 428.5  979 425.86  979 422.5  C 979 419.14  981.64 416.5  985 416.5  Z " fill-rule="nonzero" fill="#f0f0f0" stroke="none" />
  <path d="M 985 417  C 988.08 417  990.5 419.42  990.5 422.5  C 990.5 425.58  988.08 428  985 428  C 981.92 428  979.5 425.58  979.5 422.5  C 979.5 419.42  981.92 417  985 417  Z " stroke-width="1" stroke="#e82d8e" fill="none" />
  <path d="M 985 425.5  C 983.32 425.5  982 424.18  982 422.5  C 982 420.82  983.32 419.5  985 419.5  C 986.68 419.5  988 420.82  988 422.5  C 988 424.18  986.68 425.5  985 425.5  " fill-rule="nonzero" fill="#e82d8e" stroke="none" />
</svg>