<?xml version="1.0" encoding="utf-8"?>
<svg version="1.1" xmlns:xlink="http://www.w3.org/1999/xlink" width="12px" height="12px" viewBox="979 197.5  12 12" xmlns="http://www.w3.org/2000/svg">
  <path d="M 985 197.5  C 988.36 197.5  991 200.14  991 203.5  C 991 206.86  988.36 209.5  985 209.5  C 981.64 209.5  979 206.86  979 203.5  C 979 200.14  981.64 197.5  985 197.5  Z " fill-rule="nonzero" fill="#ffffff" stroke="none" />
  <path d="M 985 198  C 988.08 198  990.5 200.42  990.5 203.5  C 990.5 206.58  988.08 209  985 209  C 981.92 209  979.5 206.58  979.5 203.5  C 979.5 200.42  981.92 198  985 198  Z " stroke-width="1" stroke="#e82d8e" fill="none" />
  <path d="M 985 206.5  C 983.32 206.5  982 205.18  982 203.5  C 982 201.82  983.32 200.5  985 200.5  C 986.68 200.5  988 201.82  988 203.5  C 988 205.18  986.68 206.5  985 206.5  " fill-rule="nonzero" fill="#e82d8e" stroke="none" />
</svg>