<?xml version="1.0" encoding="utf-8"?>
<svg version="1.1" xmlns:xlink="http://www.w3.org/1999/xlink" width="12px" height="12px" viewBox="979 318.5  12 12" xmlns="http://www.w3.org/2000/svg">
  <path d="M 985 318.5  C 988.36 318.5  991 321.14  991 324.5  C 991 327.86  988.36 330.5  985 330.5  C 981.64 330.5  979 327.86  979 324.5  C 979 321.14  981.64 318.5  985 318.5  Z " fill-rule="nonzero" fill="#f0f0f0" stroke="none" />
  <path d="M 985 319  C 988.08 319  990.5 321.42  990.5 324.5  C 990.5 327.58  988.08 330  985 330  C 981.92 330  979.5 327.58  979.5 324.5  C 979.5 321.42  981.92 319  985 319  Z " stroke-width="1" stroke="#e82d8e" fill="none" />
  <path d="M 985 327.5  C 983.32 327.5  982 326.18  982 324.5  C 982 322.82  983.32 321.5  985 321.5  C 986.68 321.5  988 322.82  988 324.5  C 988 326.18  986.68 327.5  985 327.5  " fill-rule="nonzero" fill="#e82d8e" stroke="none" />
</svg>