<?xml version="1.0" encoding="utf-8"?>
<svg version="1.1" xmlns:xlink="http://www.w3.org/1999/xlink" width="12px" height="12px" viewBox="1071 560.5  12 12" xmlns="http://www.w3.org/2000/svg">
  <path d="M 1077 560.5  C 1080.36 560.5  1083 563.14  1083 566.5  C 1083 569.86  1080.36 572.5  1077 572.5  C 1073.64 572.5  1071 569.86  1071 566.5  C 1071 563.14  1073.64 560.5  1077 560.5  Z " fill-rule="nonzero" fill="#f0f0f0" stroke="none" />
  <path d="M 1077 561  C 1080.08 561  1082.5 563.42  1082.5 566.5  C 1082.5 569.58  1080.08 572  1077 572  C 1073.92 572  1071.5 569.58  1071.5 566.5  C 1071.5 563.42  1073.92 561  1077 561  Z " stroke-width="1" stroke="#e82d8e" fill="none" />
  <path d="M 1077 569.5  C 1075.32 569.5  1074 568.18  1074 566.5  C 1074 564.82  1075.32 563.5  1077 563.5  C 1078.68 563.5  1080 564.82  1080 566.5  C 1080 568.18  1078.68 569.5  1077 569.5  " fill-rule="nonzero" fill="#e82d8e" stroke="none" />
</svg>