<?xml version="1.0" encoding="utf-8"?>
<svg version="1.1" xmlns:xlink="http://www.w3.org/1999/xlink" width="12px" height="12px" viewBox="1073 389.5  12 12" xmlns="http://www.w3.org/2000/svg">
  <path d="M 1079 389.5  C 1082.36 389.5  1085 392.14  1085 395.5  C 1085 398.86  1082.36 401.5  1079 401.5  C 1075.64 401.5  1073 398.86  1073 395.5  C 1073 392.14  1075.64 389.5  1079 389.5  Z " fill-rule="nonzero" fill="#f0f0f0" stroke="none" />
  <path d="M 1079 390  C 1082.08 390  1084.5 392.42  1084.5 395.5  C 1084.5 398.58  1082.08 401  1079 401  C 1075.92 401  1073.5 398.58  1073.5 395.5  C 1073.5 392.42  1075.92 390  1079 390  Z " stroke-width="1" stroke="#e82d8e" fill="none" />
  <path d="M 1079 398.5  C 1077.32 398.5  1076 397.18  1076 395.5  C 1076 393.82  1077.32 392.5  1079 392.5  C 1080.68 392.5  1082 393.82  1082 395.5  C 1082 397.18  1080.68 398.5  1079 398.5  " fill-rule="nonzero" fill="#e82d8e" stroke="none" />
</svg>