<?xml version="1.0" encoding="utf-8"?>
<svg version="1.1" xmlns:xlink="http://www.w3.org/1999/xlink" width="12px" height="12px" viewBox="1073 253.5  12 12" xmlns="http://www.w3.org/2000/svg">
  <path d="M 1079 253.5  C 1082.36 253.5  1085 256.14  1085 259.5  C 1085 262.86  1082.36 265.5  1079 265.5  C 1075.64 265.5  1073 262.86  1073 259.5  C 1073 256.14  1075.64 253.5  1079 253.5  Z " fill-rule="nonzero" fill="#ffffff" stroke="none" />
  <path d="M 1079 254  C 1082.08 254  1084.5 256.42  1084.5 259.5  C 1084.5 262.58  1082.08 265  1079 265  C 1075.92 265  1073.5 262.58  1073.5 259.5  C 1073.5 256.42  1075.92 254  1079 254  Z " stroke-width="1" stroke="#e82d8e" fill="none" />
  <path d="M 1079 262.5  C 1077.32 262.5  1076 261.18  1076 259.5  C 1076 257.82  1077.32 256.5  1079 256.5  C 1080.68 256.5  1082 257.82  1082 259.5  C 1082 261.18  1080.68 262.5  1079 262.5  " fill-rule="nonzero" fill="#e82d8e" stroke="none" />
</svg>