<?xml version="1.0" encoding="utf-8"?>
<svg version="1.1" xmlns:xlink="http://www.w3.org/1999/xlink" width="12px" height="12px" viewBox="876 127.5  12 12" xmlns="http://www.w3.org/2000/svg">
  <path d="M 882 127.5  C 885.36 127.5  888 130.14  888 133.5  C 888 136.86  885.36 139.5  882 139.5  C 878.64 139.5  876 136.86  876 133.5  C 876 130.14  878.64 127.5  882 127.5  Z " fill-rule="nonzero" fill="#f0f0f0" stroke="none" />
  <path d="M 882 128  C 885.08 128  887.5 130.42  887.5 133.5  C 887.5 136.58  885.08 139  882 139  C 878.92 139  876.5 136.58  876.5 133.5  C 876.5 130.42  878.92 128  882 128  Z " stroke-width="1" stroke="#e82d8e" fill="none" />
  <path d="M 882 136.5  C 880.32 136.5  879 135.18  879 133.5  C 879 131.82  880.32 130.5  882 130.5  C 883.68 130.5  885 131.82  885 133.5  C 885 135.18  883.68 136.5  882 136.5  " fill-rule="nonzero" fill="#e82d8e" stroke="none" />
</svg>