<?xml version="1.0" encoding="utf-8"?>
<svg version="1.1" xmlns:xlink="http://www.w3.org/1999/xlink" width="12px" height="12px" viewBox="1073 409.5  12 12" xmlns="http://www.w3.org/2000/svg">
  <path d="M 1079 409.5  C 1082.36 409.5  1085 412.14  1085 415.5  C 1085 418.86  1082.36 421.5  1079 421.5  C 1075.64 421.5  1073 418.86  1073 415.5  C 1073 412.14  1075.64 409.5  1079 409.5  Z " fill-rule="nonzero" fill="#ffffff" stroke="none" />
  <path d="M 1079 410  C 1082.08 410  1084.5 412.42  1084.5 415.5  C 1084.5 418.58  1082.08 421  1079 421  C 1075.92 421  1073.5 418.58  1073.5 415.5  C 1073.5 412.42  1075.92 410  1079 410  Z " stroke-width="1" stroke="#e82d8e" fill="none" />
  <path d="M 1079 418.5  C 1077.32 418.5  1076 417.18  1076 415.5  C 1076 413.82  1077.32 412.5  1079 412.5  C 1080.68 412.5  1082 413.82  1082 415.5  C 1082 417.18  1080.68 418.5  1079 418.5  " fill-rule="nonzero" fill="#e82d8e" stroke="none" />
</svg>