<?xml version="1.0" encoding="utf-8"?>
<svg version="1.1" xmlns:xlink="http://www.w3.org/1999/xlink" width="12px" height="12px" viewBox="1073 526.5  12 12" xmlns="http://www.w3.org/2000/svg">
  <path d="M 1079 526.5  C 1082.36 526.5  1085 529.14  1085 532.5  C 1085 535.86  1082.36 538.5  1079 538.5  C 1075.64 538.5  1073 535.86  1073 532.5  C 1073 529.14  1075.64 526.5  1079 526.5  Z " fill-rule="nonzero" fill="#ffffff" stroke="none" />
  <path d="M 1079 527  C 1082.08 527  1084.5 529.42  1084.5 532.5  C 1084.5 535.58  1082.08 538  1079 538  C 1075.92 538  1073.5 535.58  1073.5 532.5  C 1073.5 529.42  1075.92 527  1079 527  Z " stroke-width="1" stroke="#e82d8e" fill="none" />
  <path d="M 1079 535.5  C 1077.32 535.5  1076 534.18  1076 532.5  C 1076 530.82  1077.32 529.5  1079 529.5  C 1080.68 529.5  1082 530.82  1082 532.5  C 1082 534.18  1080.68 535.5  1079 535.5  " fill-rule="nonzero" fill="#e82d8e" stroke="none" />
</svg>