<?xml version="1.0" encoding="utf-8"?>
<svg version="1.1" xmlns:xlink="http://www.w3.org/1999/xlink" width="12px" height="12px" viewBox="1073 547.5  12 12" xmlns="http://www.w3.org/2000/svg">
  <path d="M 1079 547.5  C 1082.36 547.5  1085 550.14  1085 553.5  C 1085 556.86  1082.36 559.5  1079 559.5  C 1075.64 559.5  1073 556.86  1073 553.5  C 1073 550.14  1075.64 547.5  1079 547.5  Z " fill-rule="nonzero" fill="#f0f0f0" stroke="none" />
  <path d="M 1079 548  C 1082.08 548  1084.5 550.42  1084.5 553.5  C 1084.5 556.58  1082.08 559  1079 559  C 1075.92 559  1073.5 556.58  1073.5 553.5  C 1073.5 550.42  1075.92 548  1079 548  Z " stroke-width="1" stroke="#e82d8e" fill="none" />
  <path d="M 1079 556.5  C 1077.32 556.5  1076 555.18  1076 553.5  C 1076 551.82  1077.32 550.5  1079 550.5  C 1080.68 550.5  1082 551.82  1082 553.5  C 1082 555.18  1080.68 556.5  1079 556.5  " fill-rule="nonzero" fill="#e82d8e" stroke="none" />
</svg>