<?xml version="1.0" encoding="utf-8"?>
<svg version="1.1" xmlns:xlink="http://www.w3.org/1999/xlink" width="12px" height="12px" viewBox="876 168.5  12 12" xmlns="http://www.w3.org/2000/svg">
  <path d="M 882 168.5  C 885.36 168.5  888 171.14  888 174.5  C 888 177.86  885.36 180.5  882 180.5  C 878.64 180.5  876 177.86  876 174.5  C 876 171.14  878.64 168.5  882 168.5  Z " fill-rule="nonzero" fill="#ffffff" stroke="none" />
  <path d="M 882 169  C 885.08 169  887.5 171.42  887.5 174.5  C 887.5 177.58  885.08 180  882 180  C 878.92 180  876.5 177.58  876.5 174.5  C 876.5 171.42  878.92 169  882 169  Z " stroke-width="1" stroke="#e82d8e" fill="none" />
  <path d="M 882 177.5  C 880.32 177.5  879 176.18  879 174.5  C 879 172.82  880.32 171.5  882 171.5  C 883.68 171.5  885 172.82  885 174.5  C 885 176.18  883.68 177.5  882 177.5  " fill-rule="nonzero" fill="#e82d8e" stroke="none" />
</svg>