<?xml version="1.0" encoding="utf-8"?>
<svg version="1.1" xmlns:xlink="http://www.w3.org/1999/xlink" width="12px" height="12px" viewBox="1073 294.5  12 12" xmlns="http://www.w3.org/2000/svg">
  <path d="M 1079 294.5  C 1082.36 294.5  1085 297.14  1085 300.5  C 1085 303.86  1082.36 306.5  1079 306.5  C 1075.64 306.5  1073 303.86  1073 300.5  C 1073 297.14  1075.64 294.5  1079 294.5  Z " fill-rule="nonzero" fill="#ffffff" stroke="none" />
  <path d="M 1079 295  C 1082.08 295  1084.5 297.42  1084.5 300.5  C 1084.5 303.58  1082.08 306  1079 306  C 1075.92 306  1073.5 303.58  1073.5 300.5  C 1073.5 297.42  1075.92 295  1079 295  Z " stroke-width="1" stroke="#e82d8e" fill="none" />
  <path d="M 1079 303.5  C 1077.32 303.5  1076 302.18  1076 300.5  C 1076 298.82  1077.32 297.5  1079 297.5  C 1080.68 297.5  1082 298.82  1082 300.5  C 1082 302.18  1080.68 303.5  1079 303.5  " fill-rule="nonzero" fill="#e82d8e" stroke="none" />
</svg>