<?xml version="1.0" encoding="utf-8"?>
<svg version="1.1" xmlns:xlink="http://www.w3.org/1999/xlink" width="12px" height="12px" viewBox="1073 430.5  12 12" xmlns="http://www.w3.org/2000/svg">
  <path d="M 1079 430.5  C 1082.36 430.5  1085 433.14  1085 436.5  C 1085 439.86  1082.36 442.5  1079 442.5  C 1075.64 442.5  1073 439.86  1073 436.5  C 1073 433.14  1075.64 430.5  1079 430.5  Z " fill-rule="nonzero" fill="#ffffff" stroke="none" />
  <path d="M 1079 431  C 1082.08 431  1084.5 433.42  1084.5 436.5  C 1084.5 439.58  1082.08 442  1079 442  C 1075.92 442  1073.5 439.58  1073.5 436.5  C 1073.5 433.42  1075.92 431  1079 431  Z " stroke-width="1" stroke="#e82d8e" fill="none" />
  <path d="M 1079 439.5  C 1077.32 439.5  1076 438.18  1076 436.5  C 1076 434.82  1077.32 433.5  1079 433.5  C 1080.68 433.5  1082 434.82  1082 436.5  C 1082 438.18  1080.68 439.5  1079 439.5  " fill-rule="nonzero" fill="#e82d8e" stroke="none" />
</svg>