<?xml version="1.0" encoding="utf-8"?>
<svg version="1.1" xmlns:xlink="http://www.w3.org/1999/xlink" width="12px" height="12px" viewBox="876 188.5  12 12" xmlns="http://www.w3.org/2000/svg">
  <path d="M 882 188.5  C 885.36 188.5  888 191.14  888 194.5  C 888 197.86  885.36 200.5  882 200.5  C 878.64 200.5  876 197.86  876 194.5  C 876 191.14  878.64 188.5  882 188.5  Z " fill-rule="nonzero" fill="#f0f0f0" stroke="none" />
  <path d="M 882 189  C 885.08 189  887.5 191.42  887.5 194.5  C 887.5 197.58  885.08 200  882 200  C 878.92 200  876.5 197.58  876.5 194.5  C 876.5 191.42  878.92 189  882 189  Z " stroke-width="1" stroke="#e82d8e" fill="none" />
  <path d="M 882 197.5  C 880.32 197.5  879 196.18  879 194.5  C 879 192.82  880.32 191.5  882 191.5  C 883.68 191.5  885 192.82  885 194.5  C 885 196.18  883.68 197.5  882 197.5  " fill-rule="nonzero" fill="#e82d8e" stroke="none" />
</svg>