<?xml version="1.0" encoding="utf-8"?>
<svg version="1.1" xmlns:xlink="http://www.w3.org/1999/xlink" width="12px" height="12px" viewBox="1073 450.5  12 12" xmlns="http://www.w3.org/2000/svg">
  <path d="M 1079 450.5  C 1082.36 450.5  1085 453.14  1085 456.5  C 1085 459.86  1082.36 462.5  1079 462.5  C 1075.64 462.5  1073 459.86  1073 456.5  C 1073 453.14  1075.64 450.5  1079 450.5  Z " fill-rule="nonzero" fill="#f0f0f0" stroke="none" />
  <path d="M 1079 451  C 1082.08 451  1084.5 453.42  1084.5 456.5  C 1084.5 459.58  1082.08 462  1079 462  C 1075.92 462  1073.5 459.58  1073.5 456.5  C 1073.5 453.42  1075.92 451  1079 451  Z " stroke-width="1" stroke="#e82d8e" fill="none" />
  <path d="M 1079 459.5  C 1077.32 459.5  1076 458.18  1076 456.5  C 1076 454.82  1077.32 453.5  1079 453.5  C 1080.68 453.5  1082 454.82  1082 456.5  C 1082 458.18  1080.68 459.5  1079 459.5  " fill-rule="nonzero" fill="#e82d8e" stroke="none" />
</svg>