<?xml version="1.0" encoding="utf-8"?>
<svg version="1.1" xmlns:xlink="http://www.w3.org/1999/xlink" width="12px" height="12px" viewBox="1073 567.5  12 12" xmlns="http://www.w3.org/2000/svg">
  <path d="M 1079 567.5  C 1082.36 567.5  1085 570.14  1085 573.5  C 1085 576.86  1082.36 579.5  1079 579.5  C 1075.64 579.5  1073 576.86  1073 573.5  C 1073 570.14  1075.64 567.5  1079 567.5  Z " fill-rule="nonzero" fill="#f0f0f0" stroke="none" />
  <path d="M 1079 568  C 1082.08 568  1084.5 570.42  1084.5 573.5  C 1084.5 576.58  1082.08 579  1079 579  C 1075.92 579  1073.5 576.58  1073.5 573.5  C 1073.5 570.42  1075.92 568  1079 568  Z " stroke-width="1" stroke="#e82d8e" fill="none" />
  <path d="M 1079 576.5  C 1077.32 576.5  1076 575.18  1076 573.5  C 1076 571.82  1077.32 570.5  1079 570.5  C 1080.68 570.5  1082 571.82  1082 573.5  C 1082 575.18  1080.68 576.5  1079 576.5  " fill-rule="nonzero" fill="#e82d8e" stroke="none" />
</svg>