<?xml version="1.0" encoding="utf-8"?>
<svg version="1.1" xmlns:xlink="http://www.w3.org/1999/xlink" width="12px" height="12px" viewBox="875 524.5  12 12" xmlns="http://www.w3.org/2000/svg">
  <path d="M 881 524.5  C 884.36 524.5  887 527.14  887 530.5  C 887 533.86  884.36 536.5  881 536.5  C 877.64 536.5  875 533.86  875 530.5  C 875 527.14  877.64 524.5  881 524.5  Z " fill-rule="nonzero" fill="#f0f0f0" stroke="none" />
  <path d="M 881 525  C 884.08 525  886.5 527.42  886.5 530.5  C 886.5 533.58  884.08 536  881 536  C 877.92 536  875.5 533.58  875.5 530.5  C 875.5 527.42  877.92 525  881 525  Z " stroke-width="1" stroke="#e82d8e" fill="none" />
  <path d="M 881 533.5  C 879.32 533.5  878 532.18  878 530.5  C 878 528.82  879.32 527.5  881 527.5  C 882.68 527.5  884 528.82  884 530.5  C 884 532.18  882.68 533.5  881 533.5  " fill-rule="nonzero" fill="#e82d8e" stroke="none" />
</svg>