<?xml version="1.0" encoding="utf-8"?>
<svg version="1.1" xmlns:xlink="http://www.w3.org/1999/xlink" width="12px" height="12px" viewBox="1073 118.5  12 12" xmlns="http://www.w3.org/2000/svg">
  <path d="M 1079 118.5  C 1082.36 118.5  1085 121.14  1085 124.5  C 1085 127.86  1082.36 130.5  1079 130.5  C 1075.64 130.5  1073 127.86  1073 124.5  C 1073 121.14  1075.64 118.5  1079 118.5  Z " fill-rule="nonzero" fill="#f0f0f0" stroke="none" />
  <path d="M 1079 119  C 1082.08 119  1084.5 121.42  1084.5 124.5  C 1084.5 127.58  1082.08 130  1079 130  C 1075.92 130  1073.5 127.58  1073.5 124.5  C 1073.5 121.42  1075.92 119  1079 119  Z " stroke-width="1" stroke="#e82d8e" fill="none" />
  <path d="M 1079 127.5  C 1077.32 127.5  1076 126.18  1076 124.5  C 1076 122.82  1077.32 121.5  1079 121.5  C 1080.68 121.5  1082 122.82  1082 124.5  C 1082 126.18  1080.68 127.5  1079 127.5  " fill-rule="nonzero" fill="#e82d8e" stroke="none" />
</svg>