<?xml version="1.0" encoding="utf-8"?>
<svg version="1.1" xmlns:xlink="http://www.w3.org/1999/xlink" width="12px" height="12px" viewBox="1073 159.5  12 12" xmlns="http://www.w3.org/2000/svg">
  <path d="M 1079 159.5  C 1082.36 159.5  1085 162.14  1085 165.5  C 1085 168.86  1082.36 171.5  1079 171.5  C 1075.64 171.5  1073 168.86  1073 165.5  C 1073 162.14  1075.64 159.5  1079 159.5  Z " fill-rule="nonzero" fill="#f0f0f0" stroke="none" />
  <path d="M 1079 160  C 1082.08 160  1084.5 162.42  1084.5 165.5  C 1084.5 168.58  1082.08 171  1079 171  C 1075.92 171  1073.5 168.58  1073.5 165.5  C 1073.5 162.42  1075.92 160  1079 160  Z " stroke-width="1" stroke="#e82d8e" fill="none" />
  <path d="M 1079 168.5  C 1077.32 168.5  1076 167.18  1076 165.5  C 1076 163.82  1077.32 162.5  1079 162.5  C 1080.68 162.5  1082 163.82  1082 165.5  C 1082 167.18  1080.68 168.5  1079 168.5  " fill-rule="nonzero" fill="#e82d8e" stroke="none" />
</svg>