<?xml version="1.0" encoding="utf-8"?>
<svg version="1.1" xmlns:xlink="http://www.w3.org/1999/xlink" width="12px" height="12px" viewBox="875 565.5  12 12" xmlns="http://www.w3.org/2000/svg">
  <path d="M 881 565.5  C 884.36 565.5  887 568.14  887 571.5  C 887 574.86  884.36 577.5  881 577.5  C 877.64 577.5  875 574.86  875 571.5  C 875 568.14  877.64 565.5  881 565.5  Z " fill-rule="nonzero" fill="#f0f0f0" stroke="none" />
  <path d="M 881 566  C 884.08 566  886.5 568.42  886.5 571.5  C 886.5 574.58  884.08 577  881 577  C 877.92 577  875.5 574.58  875.5 571.5  C 875.5 568.42  877.92 566  881 566  Z " stroke-width="1" stroke="#e82d8e" fill="none" />
  <path d="M 881 574.5  C 879.32 574.5  878 573.18  878 571.5  C 878 569.82  879.32 568.5  881 568.5  C 882.68 568.5  884 569.82  884 571.5  C 884 573.18  882.68 574.5  881 574.5  " fill-rule="nonzero" fill="#e82d8e" stroke="none" />
</svg>