<?xml version="1.0" encoding="utf-8"?>
<svg version="1.1" xmlns:xlink="http://www.w3.org/1999/xlink" width="12px" height="12px" viewBox="875 585.5  12 12" xmlns="http://www.w3.org/2000/svg">
  <path d="M 881 585.5  C 884.36 585.5  887 588.14  887 591.5  C 887 594.86  884.36 597.5  881 597.5  C 877.64 597.5  875 594.86  875 591.5  C 875 588.14  877.64 585.5  881 585.5  Z " fill-rule="nonzero" fill="#ffffff" stroke="none" />
  <path d="M 881 586  C 884.08 586  886.5 588.42  886.5 591.5  C 886.5 594.58  884.08 597  881 597  C 877.92 597  875.5 594.58  875.5 591.5  C 875.5 588.42  877.92 586  881 586  Z " stroke-width="1" stroke="#e82d8e" fill="none" />
  <path d="M 881 594.5  C 879.32 594.5  878 593.18  878 591.5  C 878 589.82  879.32 588.5  881 588.5  C 882.68 588.5  884 589.82  884 591.5  C 884 593.18  882.68 594.5  881 594.5  " fill-rule="nonzero" fill="#e82d8e" stroke="none" />
</svg>