<?xml version="1.0" encoding="utf-8"?>
<svg version="1.1" xmlns:xlink="http://www.w3.org/1999/xlink" width="12px" height="12px" viewBox="1073 179.5  12 12" xmlns="http://www.w3.org/2000/svg">
  <path d="M 1079 179.5  C 1082.36 179.5  1085 182.14  1085 185.5  C 1085 188.86  1082.36 191.5  1079 191.5  C 1075.64 191.5  1073 188.86  1073 185.5  C 1073 182.14  1075.64 179.5  1079 179.5  Z " fill-rule="nonzero" fill="#f0f0f0" stroke="none" />
  <path d="M 1079 180  C 1082.08 180  1084.5 182.42  1084.5 185.5  C 1084.5 188.58  1082.08 191  1079 191  C 1075.92 191  1073.5 188.58  1073.5 185.5  C 1073.5 182.42  1075.92 180  1079 180  Z " stroke-width="1" stroke="#e82d8e" fill="none" />
  <path d="M 1079 188.5  C 1077.32 188.5  1076 187.18  1076 185.5  C 1076 183.82  1077.32 182.5  1079 182.5  C 1080.68 182.5  1082 183.82  1082 185.5  C 1082 187.18  1080.68 188.5  1079 188.5  " fill-rule="nonzero" fill="#e82d8e" stroke="none" />
</svg>