<?xml version="1.0" encoding="utf-8"?>
<svg version="1.1" xmlns:xlink="http://www.w3.org/1999/xlink" width="12px" height="12px" viewBox="756 106.5  12 12" xmlns="http://www.w3.org/2000/svg">
  <path d="M 762 106.5  C 765.36 106.5  768 109.14  768 112.5  C 768 115.86  765.36 118.5  762 118.5  C 758.64 118.5  756 115.86  756 112.5  C 756 109.14  758.64 106.5  762 106.5  Z " fill-rule="nonzero" fill="#f0f0f0" stroke="none" />
  <path d="M 762 107  C 765.08 107  767.5 109.42  767.5 112.5  C 767.5 115.58  765.08 118  762 118  C 758.92 118  756.5 115.58  756.5 112.5  C 756.5 109.42  758.92 107  762 107  Z " stroke-width="1" stroke="#e82d8e" fill="none" />
  <path d="M 762 115.5  C 760.32 115.5  759 114.18  759 112.5  C 759 110.82  760.32 109.5  762 109.5  C 763.68 109.5  765 110.82  765 112.5  C 765 114.18  763.68 115.5  762 115.5  " fill-rule="nonzero" fill="#e82d8e" stroke="none" />
</svg>