<?xml version="1.0" encoding="utf-8"?>
<svg version="1.1" xmlns:xlink="http://www.w3.org/1999/xlink" width="12px" height="12px" viewBox="756 522.5  12 12" xmlns="http://www.w3.org/2000/svg">
  <path d="M 762 522.5  C 765.36 522.5  768 525.14  768 528.5  C 768 531.86  765.36 534.5  762 534.5  C 758.64 534.5  756 531.86  756 528.5  C 756 525.14  758.64 522.5  762 522.5  Z " fill-rule="nonzero" fill="#ffffff" stroke="none" />
  <path d="M 762 523  C 765.08 523  767.5 525.42  767.5 528.5  C 767.5 531.58  765.08 534  762 534  C 758.92 534  756.5 531.58  756.5 528.5  C 756.5 525.42  758.92 523  762 523  Z " stroke-width="1" stroke="#e82d8e" fill="none" />
  <path d="M 762 531.5  C 760.32 531.5  759 530.18  759 528.5  C 759 526.82  760.32 525.5  762 525.5  C 763.68 525.5  765 526.82  765 528.5  C 765 530.18  763.68 531.5  762 531.5  " fill-rule="nonzero" fill="#e82d8e" stroke="none" />
</svg>