<?xml version="1.0" encoding="utf-8"?>
<svg version="1.1" xmlns:xlink="http://www.w3.org/1999/xlink" width="12px" height="12px" viewBox="756 416.5  12 12" xmlns="http://www.w3.org/2000/svg">
  <path d="M 762 416.5  C 765.36 416.5  768 419.14  768 422.5  C 768 425.86  765.36 428.5  762 428.5  C 758.64 428.5  756 425.86  756 422.5  C 756 419.14  758.64 416.5  762 416.5  Z " fill-rule="nonzero" fill="#f0f0f0" stroke="none" />
  <path d="M 762 417  C 765.08 417  767.5 419.42  767.5 422.5  C 767.5 425.58  765.08 428  762 428  C 758.92 428  756.5 425.58  756.5 422.5  C 756.5 419.42  758.92 417  762 417  Z " stroke-width="1" stroke="#e82d8e" fill="none" />
  <path d="M 762 425.5  C 760.32 425.5  759 424.18  759 422.5  C 759 420.82  760.32 419.5  762 419.5  C 763.68 419.5  765 420.82  765 422.5  C 765 424.18  763.68 425.5  762 425.5  " fill-rule="nonzero" fill="#e82d8e" stroke="none" />
</svg>