<?xml version="1.0" encoding="utf-8"?>
<svg version="1.1" xmlns:xlink="http://www.w3.org/1999/xlink" width="12px" height="12px" viewBox="756 207.5  12 12" xmlns="http://www.w3.org/2000/svg">
  <path d="M 762 207.5  C 765.36 207.5  768 210.14  768 213.5  C 768 216.86  765.36 219.5  762 219.5  C 758.64 219.5  756 216.86  756 213.5  C 756 210.14  758.64 207.5  762 207.5  Z " fill-rule="nonzero" fill="#ffffff" stroke="none" />
  <path d="M 762 208  C 765.08 208  767.5 210.42  767.5 213.5  C 767.5 216.58  765.08 219  762 219  C 758.92 219  756.5 216.58  756.5 213.5  C 756.5 210.42  758.92 208  762 208  Z " stroke-width="1" stroke="#e82d8e" fill="none" />
  <path d="M 762 216.5  C 760.32 216.5  759 215.18  759 213.5  C 759 211.82  760.32 210.5  762 210.5  C 763.68 210.5  765 211.82  765 213.5  C 765 215.18  763.68 216.5  762 216.5  " fill-rule="nonzero" fill="#e82d8e" stroke="none" />
</svg>