<?xml version="1.0" encoding="utf-8"?>
<svg version="1.1" xmlns:xlink="http://www.w3.org/1999/xlink" width="12px" height="12px" viewBox="756 436.5  12 12" xmlns="http://www.w3.org/2000/svg">
  <path d="M 762 436.5  C 765.36 436.5  768 439.14  768 442.5  C 768 445.86  765.36 448.5  762 448.5  C 758.64 448.5  756 445.86  756 442.5  C 756 439.14  758.64 436.5  762 436.5  Z " fill-rule="nonzero" fill="#f0f0f0" stroke="none" />
  <path d="M 762 437  C 765.08 437  767.5 439.42  767.5 442.5  C 767.5 445.58  765.08 448  762 448  C 758.92 448  756.5 445.58  756.5 442.5  C 756.5 439.42  758.92 437  762 437  Z " stroke-width="1" stroke="#e82d8e" fill="none" />
  <path d="M 762 445.5  C 760.32 445.5  759 444.18  759 442.5  C 759 440.82  760.32 439.5  762 439.5  C 763.68 439.5  765 440.82  765 442.5  C 765 444.18  763.68 445.5  762 445.5  " fill-rule="nonzero" fill="#e82d8e" stroke="none" />
</svg>