<?xml version="1.0" encoding="utf-8"?>
<svg version="1.1" xmlns:xlink="http://www.w3.org/1999/xlink" width="12px" height="12px" viewBox="756 542.5  12 12" xmlns="http://www.w3.org/2000/svg">
  <path d="M 762 542.5  C 765.36 542.5  768 545.14  768 548.5  C 768 551.86  765.36 554.5  762 554.5  C 758.64 554.5  756 551.86  756 548.5  C 756 545.14  758.64 542.5  762 542.5  Z " fill-rule="nonzero" fill="#ffffff" stroke="none" />
  <path d="M 762 543  C 765.08 543  767.5 545.42  767.5 548.5  C 767.5 551.58  765.08 554  762 554  C 758.92 554  756.5 551.58  756.5 548.5  C 756.5 545.42  758.92 543  762 543  Z " stroke-width="1" stroke="#e82d8e" fill="none" />
  <path d="M 762 551.5  C 760.32 551.5  759 550.18  759 548.5  C 759 546.82  760.32 545.5  762 545.5  C 763.68 545.5  765 546.82  765 548.5  C 765 550.18  763.68 551.5  762 551.5  " fill-rule="nonzero" fill="#e82d8e" stroke="none" />
</svg>