<?xml version="1.0" encoding="utf-8"?>
<svg version="1.1" xmlns:xlink="http://www.w3.org/1999/xlink" width="12px" height="12px" viewBox="756 357.5  12 12" xmlns="http://www.w3.org/2000/svg">
  <path d="M 762 357.5  C 765.36 357.5  768 360.14  768 363.5  C 768 366.86  765.36 369.5  762 369.5  C 758.64 369.5  756 366.86  756 363.5  C 756 360.14  758.64 357.5  762 357.5  Z " fill-rule="nonzero" fill="#f0f0f0" stroke="none" />
  <path d="M 762 358  C 765.08 358  767.5 360.42  767.5 363.5  C 767.5 366.58  765.08 369  762 369  C 758.92 369  756.5 366.58  756.5 363.5  C 756.5 360.42  758.92 358  762 358  Z " stroke-width="1" stroke="#e82d8e" fill="none" />
  <path d="M 762 366.5  C 760.32 366.5  759 365.18  759 363.5  C 759 361.82  760.32 360.5  762 360.5  C 763.68 360.5  765 361.82  765 363.5  C 765 365.18  763.68 366.5  762 366.5  " fill-rule="nonzero" fill="#e82d8e" stroke="none" />
</svg>