<?xml version="1.0" encoding="utf-8"?>
<svg version="1.1" xmlns:xlink="http://www.w3.org/1999/xlink" width="12px" height="12px" viewBox="756 563.5  12 12" xmlns="http://www.w3.org/2000/svg">
  <path d="M 762 563.5  C 765.36 563.5  768 566.14  768 569.5  C 768 572.86  765.36 575.5  762 575.5  C 758.64 575.5  756 572.86  756 569.5  C 756 566.14  758.64 563.5  762 563.5  Z " fill-rule="nonzero" fill="#f0f0f0" stroke="none" />
  <path d="M 762 564  C 765.08 564  767.5 566.42  767.5 569.5  C 767.5 572.58  765.08 575  762 575  C 758.92 575  756.5 572.58  756.5 569.5  C 756.5 566.42  758.92 564  762 564  Z " stroke-width="1" stroke="#e82d8e" fill="none" />
  <path d="M 762 572.5  C 760.32 572.5  759 571.18  759 569.5  C 759 567.82  760.32 566.5  762 566.5  C 763.68 566.5  765 567.82  765 569.5  C 765 571.18  763.68 572.5  762 572.5  " fill-rule="nonzero" fill="#e82d8e" stroke="none" />
</svg>