<?xml version="1.0" encoding="utf-8"?>
<svg version="1.1" xmlns:xlink="http://www.w3.org/1999/xlink" width="12px" height="12px" viewBox="756 457.5  12 12" xmlns="http://www.w3.org/2000/svg">
  <path d="M 762 457.5  C 765.36 457.5  768 460.14  768 463.5  C 768 466.86  765.36 469.5  762 469.5  C 758.64 469.5  756 466.86  756 463.5  C 756 460.14  758.64 457.5  762 457.5  Z " fill-rule="nonzero" fill="#ffffff" stroke="none" />
  <path d="M 762 458  C 765.08 458  767.5 460.42  767.5 463.5  C 767.5 466.58  765.08 469  762 469  C 758.92 469  756.5 466.58  756.5 463.5  C 756.5 460.42  758.92 458  762 458  Z " stroke-width="1" stroke="#e82d8e" fill="none" />
  <path d="M 762 466.5  C 760.32 466.5  759 465.18  759 463.5  C 759 461.82  760.32 460.5  762 460.5  C 763.68 460.5  765 461.82  765 463.5  C 765 465.18  763.68 466.5  762 466.5  " fill-rule="nonzero" fill="#e82d8e" stroke="none" />
</svg>