<?xml version="1.0" encoding="utf-8"?>
<svg version="1.1" xmlns:xlink="http://www.w3.org/1999/xlink" width="12px" height="12px" viewBox="756 583.5  12 12" xmlns="http://www.w3.org/2000/svg">
  <path d="M 762 583.5  C 765.36 583.5  768 586.14  768 589.5  C 768 592.86  765.36 595.5  762 595.5  C 758.64 595.5  756 592.86  756 589.5  C 756 586.14  758.64 583.5  762 583.5  Z " fill-rule="nonzero" fill="#ffffff" stroke="none" />
  <path d="M 762 584  C 765.08 584  767.5 586.42  767.5 589.5  C 767.5 592.58  765.08 595  762 595  C 758.92 595  756.5 592.58  756.5 589.5  C 756.5 586.42  758.92 584  762 584  Z " stroke-width="1" stroke="#e82d8e" fill="none" />
  <path d="M 762 592.5  C 760.32 592.5  759 591.18  759 589.5  C 759 587.82  760.32 586.5  762 586.5  C 763.68 586.5  765 587.82  765 589.5  C 765 591.18  763.68 592.5  762 592.5  " fill-rule="nonzero" fill="#e82d8e" stroke="none" />
</svg>