<?xml version="1.0" encoding="utf-8"?>
<svg version="1.1" xmlns:xlink="http://www.w3.org/1999/xlink" width="12px" height="12px" viewBox="756 268.5  12 12" xmlns="http://www.w3.org/2000/svg">
  <path d="M 762 268.5  C 765.36 268.5  768 271.14  768 274.5  C 768 277.86  765.36 280.5  762 280.5  C 758.64 280.5  756 277.86  756 274.5  C 756 271.14  758.64 268.5  762 268.5  Z " fill-rule="nonzero" fill="#f0f0f0" stroke="none" />
  <path d="M 762 269  C 765.08 269  767.5 271.42  767.5 274.5  C 767.5 277.58  765.08 280  762 280  C 758.92 280  756.5 277.58  756.5 274.5  C 756.5 271.42  758.92 269  762 269  Z " stroke-width="1" stroke="#e82d8e" fill="none" />
  <path d="M 762 277.5  C 760.32 277.5  759 276.18  759 274.5  C 759 272.82  760.32 271.5  762 271.5  C 763.68 271.5  765 272.82  765 274.5  C 765 276.18  763.68 277.5  762 277.5  " fill-rule="nonzero" fill="#e82d8e" stroke="none" />
</svg>