<?xml version="1.0" encoding="utf-8"?>
<svg version="1.1" xmlns:xlink="http://www.w3.org/1999/xlink" width="12px" height="12px" viewBox="756 167.5  12 12" xmlns="http://www.w3.org/2000/svg">
  <path d="M 762 167.5  C 765.36 167.5  768 170.14  768 173.5  C 768 176.86  765.36 179.5  762 179.5  C 758.64 179.5  756 176.86  756 173.5  C 756 170.14  758.64 167.5  762 167.5  Z " fill-rule="nonzero" fill="#f0f0f0" stroke="none" />
  <path d="M 762 168  C 765.08 168  767.5 170.42  767.5 173.5  C 767.5 176.58  765.08 179  762 179  C 758.92 179  756.5 176.58  756.5 173.5  C 756.5 170.42  758.92 168  762 168  Z " stroke-width="1" stroke="#e82d8e" fill="none" />
  <path d="M 762 176.5  C 760.32 176.5  759 175.18  759 173.5  C 759 171.82  760.32 170.5  762 170.5  C 763.68 170.5  765 171.82  765 173.5  C 765 175.18  763.68 176.5  762 176.5  " fill-rule="nonzero" fill="#e82d8e" stroke="none" />
</svg>