<?xml version="1.0" encoding="utf-8"?>
<svg version="1.1" xmlns:xlink="http://www.w3.org/1999/xlink" width="12px" height="12px" viewBox="756 377.5  12 12" xmlns="http://www.w3.org/2000/svg">
  <path d="M 762 377.5  C 765.36 377.5  768 380.14  768 383.5  C 768 386.86  765.36 389.5  762 389.5  C 758.64 389.5  756 386.86  756 383.5  C 756 380.14  758.64 377.5  762 377.5  Z " fill-rule="nonzero" fill="#f0f0f0" stroke="none" />
  <path d="M 762 378  C 765.08 378  767.5 380.42  767.5 383.5  C 767.5 386.58  765.08 389  762 389  C 758.92 389  756.5 386.58  756.5 383.5  C 756.5 380.42  758.92 378  762 378  Z " stroke-width="1" stroke="#e82d8e" fill="none" />
  <path d="M 762 386.5  C 760.32 386.5  759 385.18  759 383.5  C 759 381.82  760.32 380.5  762 380.5  C 763.68 380.5  765 381.82  765 383.5  C 765 385.18  763.68 386.5  762 386.5  " fill-rule="nonzero" fill="#e82d8e" stroke="none" />
</svg>